<svg xmlns="http://www.w3.org/2000/svg" width="76.248" height="73.24" viewBox="0 0 76.248 73.24">
  <path id="euro" d="M54.17,66.068A25.964,25.964,0,0,1,31.055,51.827H54.17l4.013-8.138H28.406a25.945,25.945,0,0,1,0-8.138H54.17l4.013-8.138H31.055A25.83,25.83,0,0,1,71.145,19.56l7.1-7.2A35.661,35.661,0,0,0,54.17,3,36.172,36.172,0,0,0,20.139,27.413H6.013L2,35.551H18.293a34.5,34.5,0,0,0,0,8.138H6.013L2,51.827H20.139A36.172,36.172,0,0,0,54.17,76.24a35.586,35.586,0,0,0,24.078-9.358l-7.143-7.2A25.5,25.5,0,0,1,54.17,66.068Z" transform="translate(-2 -3)" fill="#ffaa01"/>
</svg>
