<svg xmlns="http://www.w3.org/2000/svg" width="50.016" height="35" viewBox="0 0 50.016 35">
  <g id="youtube" transform="translate(-0.7 -1)">
    <g id="Path_48" data-name="Path 48" transform="translate(0 0)" stroke-linecap="round">
      <path d="M 25.70807456970215 34.5 C 21.41482543945313 34.49991989135742 9.608195304870605 34.31673812866211 6.57402515411377 33.48124694824219 L 6.565794944763184 33.47897720336914 L 6.557545185089111 33.476806640625 C 4.929315090179443 33.04831695556641 3.65167498588562 31.77067756652832 3.22319507598877 30.14245796203613 L 3.221024990081787 30.13420867919922 L 3.218755006790161 30.12597846984863 C 2.211655139923096 26.46859741210938 2.200005054473877 18.57925796508789 2.200005054473877 18.49999809265137 C 2.200015068054199 18.42025756835938 2.212675094604492 10.474778175354 3.217255115509033 6.879467964172363 L 3.2203049659729 6.868527889251709 L 3.22319507598877 6.857548236846924 C 3.65167498588562 5.229328155517578 4.929325103759766 3.951678037643433 6.557545185089111 3.52318811416626 L 6.565794944763184 3.521018028259277 L 6.57402515411377 3.518748044967651 C 9.608195304870605 2.683258056640625 21.41482543945313 2.500078201293945 25.70807456970215 2.499998092651367 C 30.00415420532227 2.500068187713623 41.81987380981445 2.674038171768188 44.8616943359375 3.467558145523071 C 46.4868049621582 3.895218133926392 47.76446533203125 5.172878265380859 48.19294357299805 6.801097869873047 L 48.19511413574219 6.809348106384277 L 48.19738388061523 6.817578315734863 C 49.20344543457031 10.47117805480957 49.21612548828125 18.42022895812988 49.21613693237305 18.50009727478027 C 49.21612548828125 18.57919883728027 49.20342636108398 26.4724178314209 48.19738388061523 30.12597846984863 L 48.19511413574219 30.13420867919922 L 48.19294357299805 30.14245796203613 C 47.76446533203125 31.77067756652832 46.4868049621582 33.04831695556641 44.85858535766602 33.476806640625 L 44.85033416748047 33.47897720336914 L 44.84210586547852 33.48124694824219 C 41.80793380737305 34.31673812866211 30.00130462646484 34.49991989135742 25.70805549621582 34.5 L 25.70807456970215 34.5 Z" stroke="none"/>
      <path d="M 25.70801544189453 3.999996185302734 L 25.70809936523438 4 C 25.66745948791504 4 21.78041458129883 4.001701354980469 17.47974395751953 4.13311767578125 C 9.879104614257813 4.365367889404297 7.599536895751953 4.792198181152344 6.972244262695313 4.964927673339844 L 6.955795288085938 4.969459533691406 L 6.939296722412109 4.973796844482422 C 5.833015441894531 5.264928817749023 4.964923858642578 6.133018493652344 4.673793792724609 7.239297866821289 L 4.668014526367188 7.261247634887695 L 4.661903381347656 7.283117294311523 C 3.874496459960938 10.10121726989746 3.700565338134766 16.33587837219238 3.699993133544922 18.49999809265137 C 3.699993133544922 20.64824867248535 3.873344421386719 26.85307693481445 4.664924621582031 29.72773742675781 L 4.669456481933594 29.74419784545898 L 4.673793792724609 29.76069831848145 C 4.964923858642578 30.86697769165039 5.833015441894531 31.73506927490234 6.939296722412109 32.02619934082031 L 6.955795288085938 32.03053665161133 L 6.972244262695313 32.03506851196289 C 7.599536895751953 32.20779800415039 9.879104614257813 32.63462829589844 17.47974395751953 32.86687850952148 C 21.78146553039551 32.99832916259766 25.66935539245605 33 25.70800590515137 33 C 25.74677467346191 33 29.63466453552246 32.99832916259766 33.93638610839844 32.86687850952148 C 41.53702545166016 32.63462829589844 43.81659698486328 32.20779800415039 44.44388580322266 32.03506851196289 L 44.46033477783203 32.03053665161133 L 44.47683715820313 32.02619934082031 C 45.58311462402344 31.73506927490234 46.45119476318359 30.86698913574219 46.74231338500977 29.76071739196777 L 46.74666595458984 29.74420738220215 L 46.75119400024414 29.72774887084961 C 47.54105377197266 26.85930824279785 47.71554565429688 20.65006828308105 47.71612548828125 18.50039863586426 C 47.71555328369141 16.33424758911133 47.54107666015625 10.08431816101074 46.75119400024414 7.215797424316406 L 46.74666595458984 7.199338912963867 L 46.74231338500977 7.182828903198242 C 46.45146179199219 6.077569961547852 45.58472442626953 5.210073471069336 44.47989273071289 4.918155670166016 C 41.90945434570313 4.249687194824219 31.60319519042969 4.000198364257813 25.70801544189453 3.999996185302734 M 25.70806503295898 0.9999961853027344 C 25.70806503295898 0.9999961853027344 41.34516525268555 0.9999961853027344 45.24032592773438 2.016128540039063 C 47.3854866027832 2.580646514892578 49.07903671264648 4.274188995361328 49.6435432434082 6.419357299804688 C 50.71612548828125 10.31451797485352 50.71612548828125 18.49999809265137 50.71612548828125 18.49999809265137 C 50.71612548828125 18.49999809265137 50.71612548828125 26.6290283203125 49.6435432434082 30.52418899536133 C 49.07903671264648 32.66934967041016 47.3854866027832 34.36289978027344 45.24032592773438 34.92741775512695 C 41.34516525268555 36 25.70806503295898 36 25.70806503295898 36 C 25.70806503295898 36 10.07096481323242 36 6.175804138183594 34.92741775512695 C 4.030643463134766 34.36289978027344 2.337093353271484 32.66934967041016 1.772575378417969 30.52418899536133 C 0.6999931335449219 26.62903785705566 0.6999931335449219 18.49999809265137 0.6999931335449219 18.49999809265137 C 0.6999931335449219 18.49999809265137 0.6999931335449219 10.31451797485352 1.772575378417969 6.475807189941406 C 2.337093353271484 4.330646514892578 4.030643463134766 2.637096405029297 6.175804138183594 2.072578430175781 C 10.07096481323242 0.9999961853027344 25.70806503295898 0.9999961853027344 25.70806503295898 0.9999961853027344 Z" stroke="none" fill="#fff"/>
    </g>
    <g id="Path_49" data-name="Path 49" transform="translate(-15.416 -7.708)" fill="#fff" stroke-linecap="round">
      <path d="M 37.59999465942383 31.06933403015137 L 37.59999465942383 21.30013084411621 L 46.07892990112305 26.20316123962402 L 37.59999465942383 31.06933403015137 Z" stroke="none"/>
      <path d="M 39.09999465942383 28.47898101806641 L 43.07399368286133 26.19824981689453 L 39.09999465942383 23.90024375915527 L 39.09999465942383 28.47898101806641 M 36.09999465942383 33.6596794128418 L 36.09999465942383 18.70000076293945 L 49.0838737487793 26.20805931091309 L 36.09999465942383 33.6596794128418 Z" stroke="none" fill="#fff"/>
    </g>
  </g>
</svg>
