<svg id="haarlem-city-logo" xmlns="http://www.w3.org/2000/svg" width="160.897" height="107.216" viewBox="0 0 160.897 107.216">
  <path id="Path_134" data-name="Path 134" d="M211.1,15.275a7.932,7.932,0,0,0-1.315,2.477,5.765,5.765,0,0,0,2.6-.816,6.1,6.1,0,0,0-.765,2.992,5.213,5.213,0,0,0-1.989-.726,9.282,9.282,0,0,0,.436,2.4,9.11,9.11,0,0,0-3.685-.093,10.925,10.925,0,0,0,1.761-2.33,4.15,4.15,0,0,0-2.6.421,10.9,10.9,0,0,0,.877-2.917,4.346,4.346,0,0,0,2,1.151,7.072,7.072,0,0,0-.378-2.475A14.34,14.34,0,0,0,211.1,15.275Z" transform="translate(-127.956 -9.509)" fill="#fff"/>
  <path id="Path_135" data-name="Path 135" d="M111.416,113.593a3.718,3.718,0,0,0-1.241,2.661c0,1.827.812,3.041.812,5.379,0,2.5-1.531,5.025-4.04,7.538-6.715,6.716-17.457,9.911-31.57,9.911-9.738,0-23.563-2.745-28.965-8.218a7.965,7.965,0,0,1-2.282-5.478c0-3.754,2.944-5.174,2.944-8.116,0-1.729-2.231-3.149-8.423-3.149-8.721,0-23.937,5.888-31.649,5.888a10.737,10.737,0,0,1-7-2.384l3.751-4.313c2.337,2.739,4.773,3.552,8.422,3.552,11.669,0,21.915-6.9,31.653-6.9,3.6,0,5.78,1.771,5.78,4.563,0,4.16-2.933,4.16-2.933,7.709,0,6.4,19.169,12.682,36.415,12.682,15.039,0,24.953-5.475,24.953-9.028,0-2.082-.708-2.384-.708-4.762,0-3.756,2.945-8.021,6.238-11.317,3.345-3.346,9.282-4.005,14.657-4.005,8.422,0,19.28,1.824,25.971,1.824,2.032,0,5.379-.506,6.7-2.533-1.32,2.533-4.666,5.78-12.381,5.78-18.2,0-32.508-1.876-37.1,2.715Z" transform="translate(0 -65.428)" fill="#c31f39"/>
  <path id="Path_136" data-name="Path 136" d="M175.938,24.732c-.282,1.975.584,2.486.654,4.38a30.093,30.093,0,0,1,4.82-.659c-1.136.488-2.662,2.161-3.8,2.777,1.852,1.109,2.05,2.631,3,3.436-1.06-.425-2.872.212-4.308-.953-.139,1.06-1.455,3.547-1.753,5.406-.716-3.535-1.226-4.4-1.316-5.845-1.937.738-3.66.181-4.979.128a13.952,13.952,0,0,0,4.034-2.391c-1.09-1.566-1.394-2.681-2.12-3.288,1.078.352,3.327,1.147,4.012,1.24a7.441,7.441,0,0,1,1.758-4.232Zm21.906,2.556a8.3,8.3,0,0,0-1.749,3.724,7.853,7.853,0,0,1,3.8.511,9.511,9.511,0,0,0-3.649,2.412,48.662,48.662,0,0,1,1.461,4.821,43.145,43.145,0,0,0-3.358-3.508c-.934,1.354-1.846,2.875-2.7,4.235.2-1.867-.613-3.439.436-4.964-1.556-.558-3.231-.558-4.019-1.171,1.853-.349,2.847-1.531,4.235-1.606,0,0-1.265-3.105-2.455-4.043a7.778,7.778,0,0,1,4.139,2.074C194.734,29.141,195.89,27.538,197.845,27.288Z" transform="translate(-104.746 -15.397)" fill="#fff"/>
  <path id="Path_137" data-name="Path 137" d="M168.52,8.722a15.126,15.126,0,0,1,3.446-5.275A11.278,11.278,0,0,1,180.5,0c3.239,0,11.768,1.118,15.822,1.118S201.392.712,202.605,0a4.177,4.177,0,0,1-1.316,2.129c-1.627,1.626-3.553,2.129-7.713,2.129-6.389,0-9.634-.3-13.591-.3s-6.092.273-7.914,1.421A16.119,16.119,0,0,0,168.52,8.722Z" transform="translate(-104.911 0)" fill="#c31f39"/>
  <path id="Path_138" data-name="Path 138" d="M168.265,65.562a7.468,7.468,0,0,0,1.7,4.927c.2-.913,1.777-.558,4.582-2.446-.742.862-1.846,2.893-2.63,3.872,1.655.506,1.856,2.583,3.288,3.724-1.385-.787-3.444-.9-4.276-1.446.472,1.865-.606,3.9-.254,5.685-.545-.767-1.83-4.331-2.043-4.453-1.606.545-3.533,2.469-4.017,2.262,1.648-1.771,1.5-3.648,2.411-4.458-1.307-.058-3.522-1.752-4.167-2.7a7.505,7.505,0,0,0,4.605.291c0-.91.119-4.593.8-5.259Zm23.521,0c-.412,2.135.146,3.352,0,5.33.7-.354,2.172.052,4.31-.436a15.146,15.146,0,0,0-3.578,2.992c.979,1.351,1.035,2.771,2.262,4.383-1.227-.645-3-1.714-3.94-2.12a8.874,8.874,0,0,0-1.463,4.6,23.31,23.31,0,0,1-.951-5.772c-1.924.508-2.785-.046-4.677.293q1.9-1.128,3.8-2.262c-.234-.259-1.146-.82-2.552-4.97,1.788,1.589,2.471,1.464,4.453,2.995C189.5,68.967,190.715,68.511,191.787,65.562Z" transform="translate(-101.388 -40.815)" fill="#fff"/>
  <path id="Path_139" data-name="Path 139" d="M192.094,50.416a71.574,71.574,0,0,1,4.256-13.594c.508,7.807-1.213,14.1.177,27.867h1.534c.658,0,.682-.732,1.241-.732.5,0,1.106,1.118,2.481,1.092-1.275.985-1.83,1.682-2.337,1.682s-.716-.509-1.241-.509c-1.147,0-1.8.172-2.821.172,0,1.011-.048,2.43-.048,3.651,0,.723.97.459.97,1.214,0,.546-1.252,1.9-1.461,3.433-.736-1.423-1.973-2.262-1.973-3.137,0-.749.73-.6.73-1.316,0-1.461-.293-2.675-.293-3.724,0,0-1.471.032-2.639.032-.735,0-.462,1.1-1.375,1.281a12.728,12.728,0,0,1-2.63-.877c.655-.4,1.469-2.027,2.126-2.027.552,0,.644.558,1.066.558a21.588,21.588,0,0,0,2.743-.462c-.106-.32-.61-11.968-.507-14.6Z" transform="translate(-116.208 -22.923)" fill="#fff"/>
  <path id="Path_140" data-name="Path 140" d="M155.933,77.137A18.14,18.14,0,0,0,154,84.451c0,5.071,2.336,8.107,6.086,11.86,2.507,2.507,8.138,6.009,11.464,9.634,2.066,2.256,3.65,3.757,3.25,6.246a8.586,8.586,0,0,0,.809-4.007c0-3.4-2.007-5.4-4.745-8.036-2.9-2.8-6.639-5.613-9.658-8.6-3.285-3.253-5.48-6.986-5.48-10.55C155.729,79.371,155.933,77.137,155.933,77.137Z" transform="translate(-95.874 -48.021)" fill="#c31f39"/>
  <g id="Group_266" data-name="Group 266" transform="translate(33.21 89.871)">
    <path id="Path_141" data-name="Path 141" d="M93.07,252.264c0,1.476.229,2.162,2.262,2.215v.684H87.983v-.684c2.059-.13,2.262-.687,2.262-2.392V242.6c0-1.905-.28-2.545-2.262-2.571v-.684h7.349v.684c-1.909.08-2.262.487-2.262,2.7v3.789h9.181V242.7c0-2.063-.256-2.594-2.339-2.673v-.684h7.474v.684c-2.005.1-2.31.535-2.31,2.5v9.582c0,1.806.277,2.239,2.31,2.368v.684H99.911v-.684c1.984-.077,2.339-.61,2.339-2.415v-4.4H93.07Zm26.078,1.6a4.931,4.931,0,0,1-3,1.575c-.967,0-1.448-.535-1.426-1.575-1.219.944-1.5,1.575-3,1.575a2.5,2.5,0,0,1-1.982-4.2,4.862,4.862,0,0,1,2.163-1.016,9.636,9.636,0,0,0,2.82-1.247v-.814c0-1.78-.528-2.567-1.726-2.567-.79,0-1.426.482-1.426,1.066a1.813,1.813,0,0,0,.256.763l-2.313.944a1.307,1.307,0,0,1-.3-.79c0-1.245,2.361-2.924,4.6-2.924,2.088,0,3.333,1.015,3.333,2.847v5.7c0,.532.152.864.536.864a2.173,2.173,0,0,0,1.244-.664Zm-4.429-4.146c-2.717,1.6-3.1,1.754-3.1,3.028,0,.888.487,1.5,1.194,1.5a1.484,1.484,0,0,0,.919-.357c.248-.2.459-.355.987-.709Zm15.671,4.146a4.918,4.918,0,0,1-3,1.575c-.965,0-1.446-.535-1.423-1.575-1.22.944-1.5,1.575-3,1.575A2.449,2.449,0,0,1,120.32,253a2.415,2.415,0,0,1,.662-1.753,4.847,4.847,0,0,1,2.162-1.016,9.692,9.692,0,0,0,2.821-1.247v-.814c0-1.78-.536-2.567-1.726-2.567-.792,0-1.426.482-1.426,1.066a1.821,1.821,0,0,0,.254.763l-2.313.944a1.294,1.294,0,0,1-.306-.79c0-1.245,2.366-2.924,4.6-2.924,2.087,0,3.333,1.015,3.333,2.847v5.7c0,.532.151.864.531.864a2.186,2.186,0,0,0,1.246-.664Zm-4.424-4.146c-2.722,1.6-3.1,1.754-3.1,3.028,0,.888.488,1.5,1.194,1.5a1.456,1.456,0,0,0,.917-.357,12.054,12.054,0,0,1,.992-.709Zm4.888-3.433v-.506l3.484-1.121h.636v2.543h.052c.991-1.881,1.572-2.543,2.259-2.543.384,0,.867.329,2.395.636l-.841,2.085c-1.147-.228-1.88-.714-2.212-.714-.584,0-1.121.537-1.654,1.629v4.222c0,1.828.459,2.035,2.54,2.009v.633h-6.661v-.633c1.171,0,1.7-.41,1.7-1.91v-5.694Zm9.056-7.119,3.639-1.073h.732v14.55c0,1.448.386,1.882,1.937,1.882v.633h-6.308v-.633c1.6,0,1.959-.511,1.959-2.06V241.405c0-1.168-.1-1.448-1.959-1.6v-.632Zm17.527,13.477a5.816,5.816,0,0,1-5.167,2.8c-3.556,0-4.727-2.745-4.727-5.11,0-3.306,2.213-5.669,5.264-5.669a4.4,4.4,0,0,1,3.149,1.141c1.174,1.171.716,2.367,1.606,2.749v.711h-7.6c0,2.822,1.548,4.7,3.789,4.7a4.4,4.4,0,0,0,3.205-1.78Zm-2.8-4.093c-.207-2.111-.967-3.205-2.265-3.205-1.354,0-2.166,1.064-2.415,3.205Zm4.2-2.771,3.434-1.121h.636V246.7c2.115-1.424,3.537-2.033,4.676-2.033a2.315,2.315,0,0,1,2.372,2.111c2.107-1.449,3.635-2.111,4.754-2.111,1.675,0,2.54,1.3,2.54,3.483v4.349c0,1.246.2,2.036,1.681,2.036v.633h-5.75v-.633c1.02,0,1.658-.383,1.658-1.806v-4.5c0-1.147-.408-2.111-1.554-2.111a5.961,5.961,0,0,0-3.205,1.423v4.959c0,1.578.485,2.036,1.7,2.036v.633h-5.769v-.633c1.064,0,1.651-.383,1.651-1.833v-4.27c0-1.2-.2-2.315-1.549-2.315a5.827,5.827,0,0,0-3.208,1.423v5.009c0,1.576.459,1.986,1.679,1.986v.633h-5.749v-.633c1.2,0,1.653-.562,1.653-1.883v-4.477c0-1.4-.047-1.474-1.653-1.757v-.632Z" transform="translate(-87.983 -238.097)" fill="#fff"/>
  </g>
</svg>
