<svg xmlns="http://www.w3.org/2000/svg" width="35" height="35" viewBox="0 0 35 35">
  <path id="instagram" d="M11.668,17.5A5.833,5.833,0,1,1,17.5,23.334,5.833,5.833,0,0,1,11.668,17.5m-3.154,0A8.986,8.986,0,1,0,17.5,8.514,8.986,8.986,0,0,0,8.514,17.5M24.743,8.158a2.1,2.1,0,1,0,2.1-2.1,2.1,2.1,0,0,0-2.1,2.1M10.43,31.745a9.667,9.667,0,0,1-3.25-.6,5.443,5.443,0,0,1-2.013-1.309,5.409,5.409,0,0,1-1.309-2.012,9.666,9.666,0,0,1-.6-3.25c-.085-1.845-.1-2.4-.1-7.072s.018-5.226.1-7.072a9.711,9.711,0,0,1,.6-3.25A5.443,5.443,0,0,1,5.167,5.165,5.4,5.4,0,0,1,7.18,3.856a9.667,9.667,0,0,1,3.25-.6c1.845-.085,2.4-.1,7.071-.1s5.226.018,7.072.1a9.713,9.713,0,0,1,3.25.6,5.426,5.426,0,0,1,2.013,1.309,5.432,5.432,0,0,1,1.309,2.013,9.666,9.666,0,0,1,.6,3.25c.085,1.846.1,2.4.1,7.072s-.017,5.226-.1,7.072a9.7,9.7,0,0,1-.6,3.25,5.794,5.794,0,0,1-3.322,3.32,9.667,9.667,0,0,1-3.25.6c-1.845.085-2.4.1-7.072.1s-5.226-.017-7.071-.1M10.286.106A12.837,12.837,0,0,0,6.038.919a8.588,8.588,0,0,0-3.1,2.019,8.563,8.563,0,0,0-2.019,3.1,12.836,12.836,0,0,0-.813,4.248C.02,12.151,0,12.748,0,17.5s.02,5.349.106,7.215a12.836,12.836,0,0,0,.813,4.248,8.557,8.557,0,0,0,2.019,3.1,8.582,8.582,0,0,0,3.1,2.019,12.845,12.845,0,0,0,4.248.813c1.867.085,2.463.106,7.215.106s5.349-.02,7.215-.106a12.837,12.837,0,0,0,4.248-.813,8.948,8.948,0,0,0,5.119-5.119,12.8,12.8,0,0,0,.813-4.248c.085-1.867.1-2.462.1-7.215s-.02-5.349-.1-7.215a12.836,12.836,0,0,0-.813-4.248,8.606,8.606,0,0,0-2.019-3.1,8.583,8.583,0,0,0-3.1-2.019A12.817,12.817,0,0,0,24.717.106C22.851.021,22.255,0,17.5,0s-5.349.02-7.217.106" fill="#fff"/>
</svg>
