<svg id="logo-white" xmlns="http://www.w3.org/2000/svg" width="160.904" height="60" viewBox="0 0 160.904 60">
  <g id="Group_85" data-name="Group 85" transform="translate(-113.096 -209)">
    <text id="Haarlem" transform="translate(162 237)" fill="#fff" font-size="26" font-family="OpenSans-Bold, Open Sans" font-weight="700"><tspan x="0" y="0">Haarlem</tspan></text>
    <text id="Festival" transform="translate(162 261)" fill="#fff" font-size="26" font-family="OpenSans-Bold, Open Sans" font-weight="700"><tspan x="0" y="0">Festival</tspan></text>
  </g>
  <g id="Group_87" data-name="Group 87" transform="translate(-1045.5 -1407)">
    <path id="Polygon_1" data-name="Polygon 1" d="M11.208,2.661a1,1,0,0,1,1.885,0l1.865,5.266a1,1,0,0,0,.917.666l5.591.143a1,1,0,0,1,.582,1.794l-4.436,3.391A1,1,0,0,0,17.262,15l1.591,5.348a1,1,0,0,1-1.524,1.11l-4.612-3.167a1,1,0,0,0-1.132,0L6.972,21.457a1,1,0,0,1-1.524-1.11L7.039,15a1,1,0,0,0-.351-1.08L2.252,10.529a1,1,0,0,1,.582-1.794l5.591-.143a1,1,0,0,0,.917-.666Z" transform="translate(1045.5 1414)" fill="#ffaa01"/>
    <path id="Polygon_4" data-name="Polygon 4" d="M11.208,2.661a1,1,0,0,1,1.885,0l1.865,5.266a1,1,0,0,0,.917.666l5.591.143a1,1,0,0,1,.582,1.794l-4.436,3.391A1,1,0,0,0,17.262,15l1.591,5.348a1,1,0,0,1-1.524,1.11l-4.612-3.167a1,1,0,0,0-1.132,0L6.972,21.457a1,1,0,0,1-1.524-1.11L7.039,15a1,1,0,0,0-.351-1.08L2.252,10.529a1,1,0,0,1,.582-1.794l5.591-.143a1,1,0,0,0,.917-.666Z" transform="translate(1045.5 1436.821)" fill="#a336ff"/>
    <path id="Polygon_2" data-name="Polygon 2" d="M11.208,2.661a1,1,0,0,1,1.885,0l1.865,5.266a1,1,0,0,0,.917.666l5.591.143a1,1,0,0,1,.582,1.794l-4.436,3.391A1,1,0,0,0,17.262,15l1.591,5.348a1,1,0,0,1-1.524,1.11l-4.612-3.167a1,1,0,0,0-1.132,0L6.972,21.457a1,1,0,0,1-1.524-1.11L7.039,15a1,1,0,0,0-.351-1.08L2.252,10.529a1,1,0,0,1,.582-1.794l5.591-.143a1,1,0,0,0,.917-.666Z" transform="translate(1068.735 1414)" fill="#01dac5"/>
    <path id="Polygon_3" data-name="Polygon 3" d="M11.208,2.661a1,1,0,0,1,1.885,0l1.865,5.266a1,1,0,0,0,.917.666l5.591.143a1,1,0,0,1,.582,1.794l-4.436,3.391A1,1,0,0,0,17.262,15l1.591,5.348a1,1,0,0,1-1.524,1.11l-4.612-3.167a1,1,0,0,0-1.132,0L6.972,21.457a1,1,0,0,1-1.524-1.11L7.039,15a1,1,0,0,0-.351-1.08L2.252,10.529a1,1,0,0,1,.582-1.794l5.591-.143a1,1,0,0,0,.917-.666Z" transform="translate(1068.735 1436.821)" fill="#f1185c"/>
  </g>
</svg>
